<?xml version="1.0" encoding="UTF-8"?>
<!DOCTYPE svg PUBLIC "-//W3C//DTD SVG 1.1//EN" "http://www.w3.org/Graphics/SVG/1.1/DTD/svg11.dtd">
<!-- Creator: CorelDRAW -->
<svg xmlns="http://www.w3.org/2000/svg" xml:space="preserve" width="423.333mm" height="423.333mm" version="1.1" style="shape-rendering:geometricPrecision; text-rendering:geometricPrecision; image-rendering:optimizeQuality; fill-rule:evenodd; clip-rule:evenodd"
viewBox="0 0 42333.32 42333.32"
 xmlns:xlink="http://www.w3.org/1999/xlink"
 xmlns:xodm="http://www.corel.com/coreldraw/odm/2003">
 <defs>
  <style type="text/css">
   <![CDATA[
    .str1 {stroke:white;stroke-width:70.56;stroke-miterlimit:22.9256}
    .str0 {stroke:white;stroke-width:282.22;stroke-linejoin:round;stroke-miterlimit:22.9256}
    .fil2 {fill:none}
    .fil0 {fill:#00A8E8}
    .fil1 {fill:white}
   ]]>
  </style>
 </defs>
 <g id="Layer_x0020_1">
  <metadata id="CorelCorpID_0Corel-Layer"/>
  <polygon class="fil0 str0" points="8792.32,16291.3 4771.32,23255.76 6082.41,25612.48 33438.75,25612.48 38820.43,16291.3 "/>
  <g id="_2024924862736">
   <polygon class="fil1 str1" points="5713.25,23219.88 6149.74,23975.85 6586.22,24731.86 7459.16,24731.86 8332.11,24731.86 9205.06,24731.86 10078.02,24731.86 10514.49,23975.85 10950.97,23219.86 10078.02,23219.86 9205.08,23219.86 8332.11,23219.86 7459.16,23219.86 7895.63,22463.89 8332.13,21707.86 8768.63,20951.88 9205.08,20195.89 9641.57,19439.9 10078.04,18683.88 10514.51,19439.86 10950.99,20195.86 10950.99,20195.89 11387.46,20951.87 11823.94,21707.86 12260.4,20951.88 12696.9,20195.89 13133.36,19439.86 13569.85,18683.88 14442.81,18683.88 15315.76,18683.88 14879.29,17927.89 14442.81,17171.89 13569.85,17171.89 12696.9,17171.89 12260.43,17927.89 11823.95,18683.88 11387.49,17927.89 10950.99,17171.89 10078.04,17171.89 9205.09,17171.89 8768.63,17927.89 8332.13,18683.88 7895.65,19439.88 7459.17,20195.89 7022.68,20951.88 6586.22,21707.86 6149.74,22463.89 "/>
   <path class="fil1 str1" d="M15315.74 21707.86l436.48 -755.99 436.5 -755.98 436.46 -756.03 436.48 -755.98 0.01 0 872.96 0 872.95 0 436.46 755.98 436.47 756.02 -436.47 756 -436.49 755.98 -436.47 756.03 -436.5 755.97 -872.95 0 -872.91 0 -873 0 -872.95 0 436.5 -755.97 436.47 -756.03zm4364.78 -1511.97l436.47 -756.01 436.48 -756 0.02 0 -436.5 -755.99 -436.47 -756 -872.94 0 -872.95 0 -872.96 0 -872.95 0 -436.46 756 -436.5 755.99 -436.49 756 -436.47 756.01 -436.48 755.99 -436.47 755.98 -0.02 0 -436.47 756.03 -436.48 755.97 -0.02 0 436.5 755.99 436.47 756.01 872.94 0 872.95 0 872.97 0 872.94 0 872.95 0 872.97 0 436.48 -756.01 436.46 -755.99 436.5 -755.97 436.44 -756.02 0.04 0 -436.47 -756 -436.48 -755.98z"/>
   <polygon class="fil1 str1" points="20553.44,21707.86 20989.94,22463.86 21426.44,23219.86 21862.89,23975.85 22299.36,24731.86 23172.31,24731.86 24045.27,24731.86 24481.72,23975.85 24918.22,23219.86 25354.71,22463.86 25791.17,21707.86 25791.19,21707.86 26227.67,20951.87 26664.13,20195.89 27100.61,19439.86 27537.08,18683.88 27537.1,18683.88 27537.09,18683.85 27973.58,17927.89 28410.07,17171.89 27537.1,17171.89 26664.13,17171.89 26227.68,17927.89 25791.19,18683.88 25354.71,19439.88 24918.22,20195.89 24481.76,20951.88 24045.27,21707.86 23608.81,22463.89 23172.31,23219.86 22735.83,22463.89 22299.36,21707.86 21862.9,20951.87 21426.44,20195.89 20989.94,20951.87 20553.47,21707.86 "/>
   <g>
    <path class="fil1" d="M27537.08 18683.88l872.97 0 872.94 0 872.97 0 872.95 0 -436.47 756 -436.5 755.98 -436.47 756.02 -436.48 755.98 436.5 756 436.45 756 436.48 755.99 436.48 756.01 872.94 0 872.96 0 -436.49 -756.01 -436.47 -755.99 -436.48 -755.97 -436.46 -756.03 436.49 -755.99 436.46 -755.98 436.5 -756.03 436.48 -755.98 -436.5 -755.99 -436.48 -756 -872.94 0 -872.95 0 -872.97 0 -872.92 0 -436.49 756 -436.5 755.99zm-1745.91 3023.98l436.5 756 435.58 754.49 0.87 1.51 0.01 0 436.48 755.99 436.47 756.01 872.96 0 872.94 0 -436.48 -756.01 -436.46 -755.97 -436.48 -755.99 -430.01 -744.84 -6.47 -11.19 -872.95 0 -859.83 0 -13.13 0zm1309.42 756l-436.02 755.24 -0.44 0.76 -0.01 0 436.47 -756zm436.49 -756l-436.49 756 436.49 -756zm0 3024l6.51 -11.29 429.97 -744.72 -436.48 756.01z"/>
    <path id="_1" class="fil2 str1" d="M27537.08 18683.88l872.97 0 872.94 0 872.97 0 872.95 0 -436.47 756 -436.5 755.98 -436.47 756.02 -436.48 755.98 436.5 756 436.45 756 436.48 755.99 436.48 756.01 872.94 0 872.96 0 -436.49 -756.01 -436.47 -755.99 -436.48 -755.97 -436.46 -756.03 436.49 -755.99 436.46 -755.98 436.5 -756.03 436.48 -755.98 -436.5 -755.99 -436.48 -756 -872.94 0 -872.95 0 -872.97 0 -872.92 0 -436.49 756 -436.5 755.99zm-1745.91 3023.98l436.5 756 435.58 754.49 0.87 1.51 0.01 0 436.48 755.99 436.47 756.01 872.96 0 872.94 0 -436.48 -756.01 -436.46 -755.97 -436.48 -755.99 -430.01 -744.84 -6.47 -11.19 -872.95 0 -859.83 0 -13.13 0zm1309.42 756l-436.02 755.24 -0.44 0.76 -0.01 0m872.96 -1512l-436.49 756m436.49 2268l6.51 -11.29 429.97 -744.72 -436.48 756.01z"/>
   </g>
   <polygon class="fil1 str1" points="23172.33,20195.88 23608.82,19439.88 24045.28,18683.88 24045.3,18683.88 24481.78,17927.89 24918.24,17171.89 24045.3,17171.89 23172.34,17171.89 22299.38,17171.89 21426.44,17171.89 21862.92,17927.88 22299.38,18683.88 22735.86,19439.87 "/>
  </g>
 </g>
</svg>
