<svg width="20" height="20" viewBox="0 0 20 20" fill="none" xmlns="http://www.w3.org/2000/svg">
<path fill-rule="evenodd" clip-rule="evenodd" d="M0 10C-1.95685e-08 11.3132 0.258658 12.6136 0.761205 13.8268C1.26375 15.0401 2.00035 16.1425 2.92893 17.0711C3.85752 17.9997 4.95991 18.7362 6.17317 19.2388C7.38642 19.7413 8.68678 20 10 20C11.3132 20 12.6136 19.7413 13.8268 19.2388C15.0401 18.7362 16.1425 17.9997 17.0711 17.0711C17.9997 16.1425 18.7362 15.0401 19.2388 13.8268C19.7413 12.6136 20 11.3132 20 10C20 7.34784 18.9464 4.8043 17.0711 2.92893C15.1957 1.05357 12.6522 0 10 0C7.34784 0 4.8043 1.05357 2.92893 2.92893C1.05357 4.8043 3.95203e-08 7.34784 0 10ZM18.8235 10C18.8235 12.3401 17.8939 14.5844 16.2392 16.2392C14.5844 17.8939 12.3401 18.8235 10 18.8235C7.65985 18.8235 5.41556 17.8939 3.76082 16.2392C2.10609 14.5844 1.17647 12.3401 1.17647 10C1.17647 7.65985 2.10609 5.41556 3.76082 3.76082C5.41556 2.10609 7.65985 1.17647 10 1.17647C12.3401 1.17647 14.5844 2.10609 16.2392 3.76082C17.8939 5.41556 18.8235 7.65985 18.8235 10Z" fill="#ECE2D5"/>
<path fill-rule="evenodd" clip-rule="evenodd" d="M5.88232 9.99996C5.88232 15.1717 7.57879 19.4117 9.99997 19.4117C12.4211 19.4117 14.1176 15.1717 14.1176 9.99996C14.1176 4.8282 12.4211 0.588196 9.99997 0.588196C7.57879 0.588196 5.88232 4.8282 5.88232 9.99996ZM12.9411 9.99996C12.9411 14.5753 11.4764 18.2353 9.99997 18.2353C8.5235 18.2353 7.05879 14.5753 7.05879 9.99996C7.05879 5.42467 8.5235 1.76467 9.99997 1.76467C11.4764 1.76467 12.9411 5.42467 12.9411 9.99996Z" fill="#ECE2D5"/>
<path d="M2.62956 4.4847L3.41779 3.61176C3.54367 3.7247 3.67779 3.83528 3.82132 3.94234C5.37191 5.1047 7.81897 5.81293 10.486 5.81293C12.7601 5.81293 14.8825 5.29881 16.4331 4.41293C16.7903 4.21079 17.1279 3.97565 17.4413 3.71058L18.206 4.6047C17.8554 4.9047 17.4578 5.18117 17.0178 5.43293C15.2801 6.42705 12.9566 6.9894 10.486 6.9894C7.58014 6.9894 4.88367 6.2094 3.11544 4.88352C2.94742 4.75772 2.78529 4.62542 2.62956 4.4847ZM2.62956 15.5294L3.41779 16.4C3.54367 16.287 3.67779 16.1765 3.82132 16.0706C5.37191 14.9082 7.81897 14.2 10.486 14.2C12.7601 14.2 14.8825 14.7129 16.4331 15.6C16.8107 15.8165 17.1484 16.0518 17.4413 16.3012L18.206 15.407C17.8367 15.0945 17.4389 14.8172 17.0178 14.5788C15.2801 13.5859 12.9566 13.0235 10.486 13.0235C7.58014 13.0235 4.88367 13.8035 3.11544 15.1282C2.94367 15.2576 2.78132 15.3918 2.62956 15.5294ZM0.588379 10.5882V9.41175H19.4119V10.5882H0.588379Z" fill="#ECE2D5"/>
</svg>
