<svg width="21" height="19" viewBox="0 0 21 19" fill="none" xmlns="http://www.w3.org/2000/svg">
<path d="M19.09 10.6799V17.1H20.0445V19H0.954503V17.1H1.909V10.6799C1.32139 10.2895 0.839688 9.76082 0.506669 9.14068C0.17365 8.52054 -0.000389183 7.82816 6.53464e-07 7.125C6.53464e-07 6.33935 0.213809 5.5822 0.6042 4.93715L3.19281 0.475C3.27658 0.330585 3.39707 0.210662 3.54217 0.127282C3.68727 0.0439022 3.85186 4.23626e-06 4.01941 0H16.9806C17.1481 4.23626e-06 17.3127 0.0439022 17.4578 0.127282C17.6029 0.210662 17.7234 0.330585 17.8072 0.475L20.3872 4.9229C20.7862 5.5822 21 6.3384 21 7.125C21 8.607 20.2412 9.91325 19.09 10.6799ZM17.181 11.3734C16.5248 11.4467 15.8603 11.3682 15.2395 11.1441C14.6187 10.92 14.0582 10.5563 13.6017 10.0814C13.201 10.4985 12.7195 10.8305 12.1863 11.0573C11.6532 11.2841 11.0793 11.401 10.4995 11.401C9.91984 11.4012 9.3461 11.2846 8.81294 11.0582C8.27978 10.8317 7.79824 10.5001 7.39739 10.0833C6.94078 10.5581 6.38025 10.9216 5.75942 11.1455C5.13859 11.3694 4.47422 11.4477 3.81801 11.3743V17.1H17.181V11.3734ZM4.57111 1.9L2.24881 5.90235C2.0808 6.18346 1.97294 6.49609 1.932 6.82063C1.89105 7.14517 1.9179 7.47462 2.01087 7.78835C2.10383 8.10208 2.2609 8.39332 2.47224 8.6438C2.68358 8.89429 2.94462 9.09863 3.23901 9.24401C3.5334 9.3894 3.85479 9.4727 4.18303 9.48868C4.51128 9.50467 4.8393 9.453 5.14655 9.33692C5.45379 9.22083 5.73363 9.04284 5.96853 8.81408C6.20343 8.58533 6.38832 8.31075 6.51161 8.00755C6.83137 7.2124 7.96246 7.2124 8.28317 8.00755C8.46004 8.44875 8.76577 8.82702 9.16086 9.0935C9.55595 9.35998 10.0223 9.50242 10.4995 9.50242C10.9768 9.50242 11.4431 9.35998 11.8382 9.0935C12.2333 8.82702 12.539 8.44875 12.7159 8.00755C13.0356 7.2124 14.1667 7.2124 14.4874 8.00755C14.6113 8.31103 14.7969 8.58572 15.0326 8.81436C15.2683 9.043 15.5489 9.22065 15.8569 9.33614C16.1649 9.45163 16.4935 9.50247 16.8222 9.48545C17.1509 9.46843 17.4724 9.38393 17.7667 9.23725C18.061 9.09058 18.3216 8.8849 18.5322 8.63316C18.7427 8.38141 18.8987 8.08903 18.9903 7.7744C19.0818 7.45976 19.107 7.12968 19.0642 6.8049C19.0214 6.48012 18.9116 6.16765 18.7416 5.88715L16.427 1.9H4.57111Z" fill="#ECE2D5"/>
</svg>
